<?xml version="1.0" standalone="no"?>
<!DOCTYPE svg PUBLIC "-//W3C//DTD SVG 20010904//EN"
 "http://www.w3.org/TR/2001/REC-SVG-20010904/DTD/svg10.dtd">
<svg version="1.0" xmlns="http://www.w3.org/2000/svg"
 width="329.000000pt" height="329.000000pt" viewBox="0 0 329.000000 329.000000"
 preserveAspectRatio="xMidYMid meet">
<metadata>
Created by potrace 1.11, written by Peter Selinger 2001-2013
</metadata>
<g transform="translate(0.000000,329.000000) scale(0.100000,-0.100000)"
fill="#000000" stroke="none">
<path d="M1442 3274 c-358 -64 -666 -295 -832 -624 -48 -95 -60 -129 -91 -250
-24 -93 -35 -335 -19 -420 4 -25 10 -64 14 -86 3 -23 17 -87 31 -143 111 -440
435 -1003 887 -1542 172 -206 198 -225 258 -194 59 30 362 409 538 672 77 115
232 367 232 377 0 3 13 27 28 53 65 111 205 437 232 540 32 125 61 256 67 308
12 92 8 302 -7 380 -16 88 -63 232 -97 299 -111 221 -308 418 -529 529 -73 37
-216 83 -307 100 -96 18 -308 19 -405 1z m370 -418 c302 -71 534 -332 567
-638 25 -229 -52 -444 -218 -608 -205 -204 -515 -269 -780 -166 -104 41 -173
87 -257 171 -229 228 -284 561 -140 850 106 214 324 374 546 402 25 3 46 7 48
8 10 9 176 -5 234 -19z"/>
</g>
</svg>
